# xmcd CD database file
#
# Track frame offsets:
#	183
#	9990
#	21008
#	33493
#	46250
#	56475
#	65570
#	81240
#	92288
#	104140
#	118433
#	130070
#	141138
#	156213
#	165723
#	181158
#	192583
#	206068
#	218475
#	233283
#	249190
#	260125
#	280743
#
# Disc length: 4032 seconds
#
# Revision: 0
# Processed by: cddbd v1.5.1PL0 Copyright (c) Steve Scherf et al.
# Submitted via: CDex 1.51
#
DISCID=3f0fbe17
DTITLE=SONNY BOY WILLIAMSON - The complete chess recordings cd 3
DYEAR=1991
DGENRE=Blues
TTITLE0=She's my baby
TTITLE1=Stop right now
TTITLE2=The hunt
TTITLE3=Too old to think
TTITLE4=That's all i want
TTITLE5=One way out
TTITLE6=Nine below zero
TTITLE7=Got to move
TTITLE8=Bye bye bird
TTITLE9=Help me
TTITLE10=Bring it on home
TTITLE11=One way out
TTITLE12=My younger days
TTITLE13=Tryin' to get back on my feet
TTITLE14=Decoration day
TTITLE15=Stop cryin
TTITLE16=I want you close to me
TTITLE17=One way out
TTITLE18=I can't be alone
TTITLE19=Don't make a mistake
TTITLE20=Understand my life
TTITLE21=Find another woman
TTITLE22=My name is Sonny Boy
EXTD=YEAR: 1991
EXTT0=
EXTT1=
EXTT2=
EXTT3=
EXTT4=
EXTT5=
EXTT6=
EXTT7=
EXTT8=
EXTT9=
EXTT10=
EXTT11=
EXTT12=
EXTT13=
EXTT14=
EXTT15=
EXTT16=
EXTT17=
EXTT18=
EXTT19=
EXTT20=
EXTT21=
EXTT22=
PLAYORDER=
